<?xml version="1.0" encoding="UTF-8"?>
<svg width="22px" height="17px" viewBox="0 0 22 17" version="1.1" xmlns="http://www.w3.org/2000/svg" xmlns:xlink="http://www.w3.org/1999/xlink">
    <title>icon-kayak 2</title>
    <g id="Page-1" stroke="none" stroke-width="1" fill="none" fill-rule="evenodd">
        <g id="icon-kayak-2" fill="#ED8D77" fill-rule="nonzero">
            <g id="icon-kayak">
                <circle id="Oval" cx="10.6" cy="7.32" r="1.462"></circle>
                <path d="M7.932,14.036 C7.695,13.89 7.463,13.737 7.234,13.583 C7.116,13.503 7.015,13.435 6.895,13.347 L6.716,13.218 L6.52,13.085 C5.995,12.735 5.402,12.446 4.745,12.29 C4.417,12.212 4.071,12.175 3.723,12.192 C3.549,12.204 3.375,12.227 3.203,12.266 C3.033,12.309 2.866,12.364 2.708,12.436 C2.075,12.727 1.601,13.272 1.459,13.877 C1.939,13.496 2.461,13.297 2.948,13.264 C3.437,13.233 3.901,13.348 4.359,13.539 C4.817,13.73 5.261,14.004 5.703,14.301 C5.909,14.447 6.166,14.631 6.426,14.801 C6.681,14.971 6.946,15.125 7.213,15.272 C8.283,15.862 9.424,16.293 10.589,16.579 C11.174,16.72 11.763,16.829 12.358,16.892 C12.952,16.956 13.551,16.986 14.148,16.935 C13.035,16.513 11.964,16.085 10.923,15.611 C9.882,15.138 8.88,14.622 7.932,14.036 Z" id="Path"></path>
                <path d="M21.762,7.424 L19.22,6.53 L17.799,6.709 L17.783,6.752 L5.107,2.848 L5.124,2.803 L4.151,1.753 L1.629,0.803 C0.863,1.855 0.915,2.7 0.915,2.7 L3.437,3.65 L4.861,3.502 L4.87,3.477 L6.303,3.918 C6.255,4.079 6.269,4.257 6.363,4.411 C6.364,4.413 6.365,4.415 6.365,4.415 L7.484,8.738 L7.111,10.655 C6.298,10.325 5.423,10.091 4.517,10.063 C3.566,10.026 2.583,10.241 1.774,10.729 C1.371,10.972 1.011,11.271 0.709,11.614 C0.409,11.956 0.158,12.339 0,12.753 C0.594,12.105 1.32,11.64 2.081,11.382 C2.844,11.122 3.64,11.085 4.413,11.212 C5.188,11.339 5.943,11.616 6.669,11.976 C7.031,12.158 7.39,12.353 7.738,12.572 C8.09,12.785 8.435,13.013 8.772,13.258 C8.934,13.373 9.129,13.512 9.316,13.637 C9.504,13.764 9.693,13.889 9.887,14.006 C10.277,14.24 10.677,14.461 11.095,14.654 C11.93,15.037 12.834,15.336 13.788,15.412 C14.264,15.451 14.75,15.432 15.224,15.338 C15.698,15.244 16.156,15.074 16.565,14.832 C16.974,14.59 17.335,14.281 17.626,13.926 C17.916,13.572 18.147,13.176 18.279,12.754 C17.725,13.436 17.013,13.928 16.259,14.176 C15.504,14.428 14.712,14.428 13.947,14.264 C13.18,14.1 12.433,13.789 11.718,13.403 C11.601,13.34 11.486,13.274 11.37,13.208 L12.379,10.042 L15.829,7.321 C15.831,7.321 15.832,7.321 15.834,7.318 C15.979,7.231 16.074,7.093 16.112,6.941 L17.559,7.386 L17.548,7.416 L18.544,8.445 L21.086,9.339 C21.832,8.268 21.762,7.424 21.762,7.424 Z M12.41,8.457 C12.405,8.46 12.401,8.463 12.397,8.466 C9.756,10.314 8.618,7.402 8.618,7.402 L7.599,4.317 L14.836,6.546 L12.41,8.457 Z" id="Shape"></path>
            </g>
        </g>
    </g>
</svg>