<?xml version="1.0" encoding="UTF-8"?>
<svg width="298px" height="101px" viewBox="0 0 298 101" version="1.1" xmlns="http://www.w3.org/2000/svg" xmlns:xlink="http://www.w3.org/1999/xlink">
    <title>Group</title>
    <g id="Page-1" stroke="none" stroke-width="1" fill="none" fill-rule="evenodd">
        <g id="Group">
            <path d="M0.417,67.84 C8.4,43.271 31.247,28.322 57.072,29.002 C79.767,29.6 100.81,38.805 120.867,47.661 C160.626,65.214 206.889,77.818 249.473,62.724 C275.431,53.523 295.807,28.624 290.854,1.42108547e-14 C290.854,1.42108547e-14 298.464,14.793 297.399,34.184 C296.581,49.085 291.062,63.815 281.715,75.618 C269.783,90.684 251.868,97.341 233.622,99.609 C209.905,102.556 185.553,98.433 162.623,91.624 C142.126,85.538 122.964,75.87 103.751,66.655 C90.665,60.378 77.469,54.243 63.728,49.52 C53.118,45.873 41.777,43.338 30.665,46.243 C17.306,49.735 8.803,58.915 2.84217094e-14,68.882" id="Fill-5" fill="#FFFFFF"></path>
            <path d="M139.987,30.164 C126.234,24.266 113.254,15.963 98.577,13.041 C63.168,5.99 47.014,22.098 44.981,23.743 C53.557,20.488 63.06,20.495 72.132,21.854 C104.54,26.705 132.428,47.271 163.987,56.097 C233.85,75.635 256.643,44.267 260.74,35.726 C225.316,64.663 165.936,41.291 139.987,30.164" id="Fill-6" fill-opacity="0.59689139" fill="#319AC9"></path>
        </g>
    </g>
</svg>